# Original calibration star; +Y up; radius .5; depth .16
o LearningStar
v 0.000000 0.500000 0.080000
v 0.135191 0.186074 0.080000
v 0.475528 0.154508 0.080000
v 0.218743 -0.071074 0.080000
v 0.293893 -0.404508 0.080000
v 0.000000 -0.230000 0.080000
v -0.293893 -0.404508 0.080000
v -0.218743 -0.071074 0.080000
v -0.475528 0.154508 0.080000
v -0.135191 0.186074 0.080000
v 0.000000 0.500000 -0.080000
v 0.135191 0.186074 -0.080000
v 0.475528 0.154508 -0.080000
v 0.218743 -0.071074 -0.080000
v 0.293893 -0.404508 -0.080000
v 0.000000 -0.230000 -0.080000
v -0.293893 -0.404508 -0.080000
v -0.218743 -0.071074 -0.080000
v -0.475528 0.154508 -0.080000
v -0.135191 0.186074 -0.080000
v 0.000000 0.000000 0.080000
v 0.000000 0.000000 -0.080000
s off
f 21 2 1
f 22 11 12
f 1 2 12
f 1 12 11
f 21 3 2
f 22 12 13
f 2 3 13
f 2 13 12
f 21 4 3
f 22 13 14
f 3 4 14
f 3 14 13
f 21 5 4
f 22 14 15
f 4 5 15
f 4 15 14
f 21 6 5
f 22 15 16
f 5 6 16
f 5 16 15
f 21 7 6
f 22 16 17
f 6 7 17
f 6 17 16
f 21 8 7
f 22 17 18
f 7 8 18
f 7 18 17
f 21 9 8
f 22 18 19
f 8 9 19
f 8 19 18
f 21 10 9
f 22 19 20
f 9 10 20
f 9 20 19
f 21 1 10
f 22 20 11
f 10 1 11
f 10 11 20
