{"asset":{"version":"2.0","generator":"AI3D original teaching fixture v1"},"scene":0,"scenes":[{"name":"PracticeRobot","nodes":[0,6]}],"nodes":[{"name":"LearningRig","children":[1]},{"name":"Hip","translation":[0,1.1,0],"children":[2,3,4,5]},{"name":"Arm_L","translation":[-0.57,0.4,0]},{"name":"Arm_R","translation":[0.57,0.4,0]},{"name":"Leg_L","translation":[-0.2,-0.3,0]},{"name":"Leg_R","translation":[0.2,-0.3,0]},{"name":"RobotMesh","mesh":0,"skin":0}],"skins":[{"name":"LearningSkin","inverseBindMatrices":5,"joints":[1,2,3,4,5],"skeleton":1}],"meshes":[{"name":"WeightedBlocks","primitives":[{"attributes":{"POSITION":0,"NORMAL":1,"JOINTS_0":2,"WEIGHTS_0":3},"indices":4,"material":0}]}],"materials":[{"name":"LearningBlue","pbrMetallicRoughness":{"baseColorFactor":[0.23,0.52,0.68,1],"metallicFactor":0,"roughnessFactor":0.82}}],"animations":[{"name":"Idle","samplers":[{"input":6,"output":7,"interpolation":"LINEAR"},{"input":6,"output":8,"interpolation":"LINEAR"},{"input":6,"output":9,"interpolation":"LINEAR"},{"input":6,"output":10,"interpolation":"LINEAR"}],"channels":[{"sampler":0,"target":{"node":2,"path":"rotation"}},{"sampler":1,"target":{"node":3,"path":"rotation"}},{"sampler":2,"target":{"node":4,"path":"rotation"}},{"sampler":3,"target":{"node":5,"path":"rotation"}}]},{"name":"Walk","samplers":[{"input":11,"output":12,"interpolation":"LINEAR"},{"input":11,"output":13,"interpolation":"LINEAR"},{"input":11,"output":14,"interpolation":"LINEAR"},{"input":11,"output":15,"interpolation":"LINEAR"}],"channels":[{"sampler":0,"target":{"node":2,"path":"rotation"}},{"sampler":1,"target":{"node":3,"path":"rotation"}},{"sampler":2,"target":{"node":4,"path":"rotation"}},{"sampler":3,"target":{"node":5,"path":"rotation"}}]},{"name":"Attack","samplers":[{"input":16,"output":17,"interpolation":"LINEAR"},{"input":16,"output":18,"interpolation":"LINEAR"},{"input":16,"output":19,"interpolation":"LINEAR"},{"input":16,"output":20,"interpolation":"LINEAR"}],"channels":[{"sampler":0,"target":{"node":2,"path":"rotation"}},{"sampler":1,"target":{"node":3,"path":"rotation"}},{"sampler":2,"target":{"node":4,"path":"rotation"}},{"sampler":3,"target":{"node":5,"path":"rotation"}}]}],"bufferViews":[{"buffer":0,"byteOffset":0,"byteLength":1728},{"buffer":0,"byteOffset":1728,"byteLength":1728},{"buffer":0,"byteOffset":3456,"byteLength":1152},{"buffer":0,"byteOffset":4608,"byteLength":2304},{"buffer":0,"byteOffset":6912,"byteLength":432},{"buffer":0,"byteOffset":7344,"byteLength":320},{"buffer":0,"byteOffset":7664,"byteLength":52},{"buffer":0,"byteOffset":7716,"byteLength":208},{"buffer":0,"byteOffset":7924,"byteLength":208},{"buffer":0,"byteOffset":8132,"byteLength":208},{"buffer":0,"byteOffset":8340,"byteLength":208},{"buffer":0,"byteOffset":8548,"byteLength":52},{"buffer":0,"byteOffset":8600,"byteLength":208},{"buffer":0,"byteOffset":8808,"byteLength":208},{"buffer":0,"byteOffset":9016,"byteLength":208},{"buffer":0,"byteOffset":9224,"byteLength":208},{"buffer":0,"byteOffset":9432,"byteLength":52},{"buffer":0,"byteOffset":9484,"byteLength":208},{"buffer":0,"byteOffset":9692,"byteLength":208},{"buffer":0,"byteOffset":9900,"byteLength":208},{"buffer":0,"byteOffset":10108,"byteLength":208}],"accessors":[{"bufferView":0,"componentType":5126,"count":144,"type":"VEC3","min":[-0.6799999999999999,0.0,-0.25],"max":[0.6799999999999999,2.05,0.25]},{"bufferView":1,"componentType":5126,"count":144,"type":"VEC3"},{"bufferView":2,"componentType":5123,"count":144,"type":"VEC4"},{"bufferView":3,"componentType":5126,"count":144,"type":"VEC4"},{"bufferView":4,"componentType":5123,"count":216,"type":"SCALAR"},{"bufferView":5,"componentType":5126,"count":5,"type":"MAT4"},{"bufferView":6,"componentType":5126,"count":13,"type":"SCALAR","min":[0.0],"max":[1.0]},{"bufferView":7,"componentType":5126,"count":13,"type":"VEC4"},{"bufferView":8,"componentType":5126,"count":13,"type":"VEC4"},{"bufferView":9,"componentType":5126,"count":13,"type":"VEC4"},{"bufferView":10,"componentType":5126,"count":13,"type":"VEC4"},{"bufferView":11,"componentType":5126,"count":13,"type":"SCALAR","min":[0.0],"max":[1.0]},{"bufferView":12,"componentType":5126,"count":13,"type":"VEC4"},{"bufferView":13,"componentType":5126,"count":13,"type":"VEC4"},{"bufferView":14,"componentType":5126,"count":13,"type":"VEC4"},{"bufferView":15,"componentType":5126,"count":13,"type":"VEC4"},{"bufferView":16,"componentType":5126,"count":13,"type":"SCALAR","min":[0.0],"max":[1.0]},{"bufferView":17,"componentType":5126,"count":13,"type":"VEC4"},{"bufferView":18,"componentType":5126,"count":13,"type":"VEC4"},{"bufferView":19,"componentType":5126,"count":13,"type":"VEC4"},{"bufferView":20,"componentType":5126,"count":13,"type":"VEC4"}],"buffers":[{"byteLength":10316,"uri":"data:application/octet-stream;base64,"}]}
