{
  "asset": {
    "version": "2.0",
    "generator": "AI 3D learning / make_star.py"
  },
  "scene": 0,
  "scenes": [
    {
      "nodes": [
        0
      ]
    }
  ],
  "nodes": [
    {
      "name": "StarMesh",
      "mesh": 0
    }
  ],
  "meshes": [
    {
      "primitives": [
        {
          "attributes": {
            "POSITION": 0,
            "NORMAL": 1
          },
          "material": 0
        }
      ]
    }
  ],
  "materials": [
    {
      "name": "Gold",
      "pbrMetallicRoughness": {
        "baseColorFactor": [
          1,
          0.65,
          0.08,
          1
        ],
        "metallicFactor": 0.15,
        "roughnessFactor": 0.35
      },
      "emissiveFactor": [
        0.15,
        0.07,
        0
      ]
    }
  ],
  "buffers": [
    {
      "byteLength": 2880,
      "uri": "data:application/octet-stream;base64,"
    }
  ],
  "bufferViews": [
    {
      "buffer": 0,
      "byteOffset": 0,
      "byteLength": 1440,
      "target": 34962
    },
    {
      "buffer": 0,
      "byteOffset": 1440,
      "byteLength": 1440,
      "target": 34962
    }
  ],
  "accessors": [
    {
      "bufferView": 0,
      "componentType": 5126,
      "count": 120,
      "type": "VEC3",
      "min": [
        -0.47552825814757677,
        -0.4045084971874738,
        -0.1
      ],
      "max": [
        0.4755282581475768,
        0.5,
        0.1
      ]
    },
    {
      "bufferView": 1,
      "componentType": 5126,
      "count": 120,
      "type": "VEC3"
    }
  ]
}
